<mxfile host="65bd71144e">
    <diagram id="kb6ERmdoE3fj__gCxbpV" name="Page-1">
        <mxGraphModel dx="1615" dy="317" grid="1" gridSize="10" guides="1" tooltips="1" connect="1" arrows="1" fold="1" page="0" pageScale="1" pageWidth="827" pageHeight="1169" math="0" shadow="0">
            <root>
                <mxCell id="0"/>
                <mxCell id="1" parent="0"/>
                <mxCell id="12" style="edgeStyle=none;html=1;exitX=1;exitY=0.25;exitDx=0;exitDy=0;entryX=0;entryY=0.25;entryDx=0;entryDy=0;" edge="1" parent="1" source="10" target="11">
                    <mxGeometry relative="1" as="geometry"/>
                </mxCell>
                <mxCell id="14" value="pushLeftButton" style="edgeLabel;html=1;align=center;verticalAlign=middle;resizable=0;points=[];" vertex="1" connectable="0" parent="12">
                    <mxGeometry x="0.4625" y="3" relative="1" as="geometry">
                        <mxPoint x="-28" y="-17" as="offset"/>
                    </mxGeometry>
                </mxCell>
                <object label="Off" type="state" id="10">
                    <mxCell style="swimlane;rounded=1;whiteSpace=wrap;html=1;glass=0;sketch=0;" vertex="1" parent="1">
                        <mxGeometry x="-510" y="370" width="130" height="80" as="geometry"/>
                    </mxCell>
                </object>
                <mxCell id="13" style="edgeStyle=none;html=1;exitX=0;exitY=0.75;exitDx=0;exitDy=0;entryX=1;entryY=0.75;entryDx=0;entryDy=0;" edge="1" parent="1" source="11" target="10">
                    <mxGeometry relative="1" as="geometry"/>
                </mxCell>
                <mxCell id="15" value="pushRightButton" style="edgeLabel;html=1;align=center;verticalAlign=middle;resizable=0;points=[];" vertex="1" connectable="0" parent="13">
                    <mxGeometry x="0.3708" y="3" relative="1" as="geometry">
                        <mxPoint x="22" y="17" as="offset"/>
                    </mxGeometry>
                </mxCell>
                <object label="On" type="state" id="11">
                    <mxCell style="swimlane;rounded=1;whiteSpace=wrap;html=1;glass=0;sketch=0;startSize=23;" vertex="1" parent="1">
                        <mxGeometry x="-260" y="370" width="130" height="80" as="geometry"/>
                    </mxCell>
                </object>
                <mxCell id="17" style="edgeStyle=none;html=1;exitX=1;exitY=0.5;exitDx=0;exitDy=0;entryX=0;entryY=0.5;entryDx=0;entryDy=0;" edge="1" parent="1" source="16" target="10">
                    <mxGeometry relative="1" as="geometry"/>
                </mxCell>
                <object label="" type="initialstate" id="16">
                    <mxCell style="ellipse;whiteSpace=wrap;html=1;aspect=fixed;glass=0;sketch=0;fillColor=#000000;" vertex="1" parent="1">
                        <mxGeometry x="-630" y="395" width="30" height="30" as="geometry"/>
                    </mxCell>
                </object>
            </root>
        </mxGraphModel>
    </diagram>
</mxfile>